# xmcd
#
# Track frame offsets:
#	150
#	13969
#	27547
#	38049
#	53929
#	66613
#	81309
#	97357
#	110888
#	128729
#	142779
#	156692
#	173279
#	184851
#
# Disc length: 2601 seconds
#
# Revision: 1
# Processed by: cddbd v1.5.1PL0 Copyright (c) Steve Scherf et al.
# Submitted via: audiograbber 1.82.02
#
DISCID=d00a270e
DTITLE=Mick Flavin - Country Highways
DYEAR=1999
DGENRE=Country
TTITLE0=Mick Flavin - I Hadn't Counted On You
TTITLE1=Mick Flavin - Sweet Mary And The Miles
TTITLE2=Mick Flavin - Your Gonna Wonder About Me
TTITLE3=Mick Flavin - Crossroads Of Life
TTITLE4=Mick Flavin - All Of My Life
TTITLE5=Mick Flavin - She's Not An Angel
TTITLE6=Mick Flavin - Just Pretending
TTITLE7=Mick Flavin - Beautiful Bouquet
TTITLE8=Mick Flavin - My Old Grannard Home
TTITLE9=Mick Flavin - Highway Of Life
TTITLE10=Mick Flavin - We've Got Something Going
TTITLE11=Mick Flavin - Homestead In Mayo
TTITLE12=Mick Flavin - For The Love Of A Song
TTITLE13=Mick Flavin - Dance With Me (Just One More Time)
EXTD=
EXTT0=
EXTT1=
EXTT2=
EXTT3=
EXTT4=
EXTT5=
EXTT6=
EXTT7=
EXTT8=
EXTT9=
EXTT10=
EXTT11=
EXTT12=
EXTT13=
PLAYORDER=
